HIERARCHY
ROOT hip
{
  OFFSET 0.0 0.0 0.0
  CHANNELS 6 Xposition Yposition Zposition Zrotation Yrotation Xrotation
  JOINT abdomen
  {
    OFFSET 0.0 20.6881 -0.73152
    CHANNELS 3 Zrotation Xrotation Yrotation
    JOINT chest
    {
      OFFSET 0.0 11.7043 -0.48768
      CHANNELS 3 Zrotation Xrotation Yrotation
      JOINT neck
      {
        OFFSET 0.0 22.1894 -2.19456
        CHANNELS 3 Zrotation Xrotation Yrotation
        JOINT head
        {
          OFFSET -0.24384 7.07133 1.2192
          CHANNELS 3 Zrotation Xrotation Yrotation
          JOINT leftEye
          {
            OFFSET 4.14528 8.04674 8.04672
            CHANNELS 3 Zrotation Xrotation Yrotation
            End Site
            {
              OFFSET 1.0 0.0 0.0
            }
          }
          JOINT rightEye
          {
            OFFSET -3.6576 8.04674 8.04672
            CHANNELS 3 Zrotation Xrotation Yrotation
            End Site
            {
              OFFSET 1.0 0.0 0.0
            }
          }
        }
      }
      JOINT rCollar
      {
        OFFSET -2.68224 19.2634 -4.8768
        CHANNELS 3 Zrotation Xrotation Yrotation
        JOINT rShldr
        {
          OFFSET -8.77824 -1.95073 1.46304
          CHANNELS 3 Zrotation Xrotation Yrotation
          JOINT rForeArm
          {
            OFFSET -28.1742 -1.7115 0.48768
            CHANNELS 3 Zrotation Xrotation Yrotation
            JOINT rHand
            {
              OFFSET -22.5879 0.773209 7.07136
              CHANNELS 3 Zrotation Xrotation Yrotation
              JOINT rThumb1
              {
                OFFSET -1.2192 -0.487915 3.41376
                CHANNELS 3 Zrotation Xrotation Yrotation
                JOINT rThumb2
                {
                  OFFSET -3.37035 -0.52449 3.41376
                  CHANNELS 3 Zrotation Xrotation Yrotation
                  End Site
                  {
                    OFFSET -1.78271 -1.18214 1.43049
                  }
                }
              }
              JOINT rIndex1
              {
                OFFSET -7.75947 0.938293 5.60832
                CHANNELS 3 Zrotation Xrotation Yrotation
                JOINT rIndex2
                {
                  OFFSET -2.54057 -0.884171 1.56538
                  CHANNELS 3 Zrotation Xrotation Yrotation
                  End Site
                  {
                    OFFSET -1.62519 -0.234802 1.16502
                  }
                }
              }
              JOINT rMid1
              {
                OFFSET -8.24714 1.18213 3.41376
                CHANNELS 3 Zrotation Xrotation Yrotation
                JOINT rMid2
                {
                  OFFSET -3.10165 -0.590103 1.0647
                  CHANNELS 3 Zrotation Xrotation Yrotation
                  End Site
                  {
                    OFFSET -2.48547 -0.328903 0.83742
                  }
                }
              }
              JOINT rRing1
              {
                OFFSET -8.82822 0.546677 1.51678
                CHANNELS 3 Zrotation Xrotation Yrotation
                JOINT rRing2
                {
                  OFFSET -2.60934 -0.819778 -0.0198488
                  CHANNELS 3 Zrotation Xrotation Yrotation
                  End Site
                  {
                    OFFSET -2.33842 -0.294052 0.168128
                  }
                }
              }
              JOINT rPinky1
              {
                OFFSET -8.27202 -0.0477905 -0.4584
                CHANNELS 3 Zrotation Xrotation Yrotation
                JOINT rPinky2
                {
                  OFFSET -1.82734 -0.647385 -0.700984
                  CHANNELS 3 Zrotation Xrotation Yrotation
                  End Site
                  {
                    OFFSET -1.69225 -0.51767 -0.607171
                  }
                }
              }
            }
          }
        }
      }
      JOINT lCollar
      {
        OFFSET 2.68224 19.2634 -4.8768
        CHANNELS 3 Zrotation Xrotation Yrotation
        JOINT lShldr
        {
          OFFSET 8.77824 -1.95073 1.46304
          CHANNELS 3 Zrotation Xrotation Yrotation
          JOINT lForeArm
          {
            OFFSET 28.1742 -1.7115 0.48768
            CHANNELS 3 Zrotation Xrotation Yrotation
            JOINT lHand
            {
              OFFSET 22.5879 0.773209 7.07136
              CHANNELS 3 Zrotation Xrotation Yrotation
              JOINT lThumb1
              {
                OFFSET 1.2192 -0.487915 3.41376
                CHANNELS 3 Zrotation Xrotation Yrotation
                JOINT lThumb2
                {
                  OFFSET 3.37035 -0.52449 3.41376
                  CHANNELS 3 Zrotation Xrotation Yrotation
                  End Site
                  {
                    OFFSET 1.78271 -1.18214 1.43049
                  }
                }
              }
              JOINT lIndex1
              {
                OFFSET 7.75947 0.938293 5.60832
                CHANNELS 3 Zrotation Xrotation Yrotation
                JOINT lIndex2
                {
                  OFFSET 2.54057 -0.884171 1.56538
                  CHANNELS 3 Zrotation Xrotation Yrotation
                  End Site
                  {
                    OFFSET 1.62519 -0.234802 1.16502
                  }
                }
              }
              JOINT lMid1
              {
                OFFSET 8.24714 1.18213 3.41376
                CHANNELS 3 Zrotation Xrotation Yrotation
                JOINT lMid2
                {
                  OFFSET 3.10165 -0.590103 1.0647
                  CHANNELS 3 Zrotation Xrotation Yrotation
                  End Site
                  {
                    OFFSET 2.48547 -0.328903 0.83742
                  }
                }
              }
              JOINT lRing1
              {
                OFFSET 8.82822 0.546677 1.51678
                CHANNELS 3 Zrotation Xrotation Yrotation
                JOINT lRing2
                {
                  OFFSET 2.60934 -0.819778 -0.0198488
                  CHANNELS 3 Zrotation Xrotation Yrotation
                  End Site
                  {
                    OFFSET 2.33842 -0.294052 0.168128
                  }
                }
              }
              JOINT lPinky1
              {
                OFFSET 8.27202 -0.0477905 -0.4584
                CHANNELS 3 Zrotation Xrotation Yrotation
                JOINT lPinky2
                {
                  OFFSET 1.82734 -0.647385 -0.700984
                  CHANNELS 3 Zrotation Xrotation Yrotation
                  End Site
                  {
                    OFFSET 1.69225 -0.51767 -0.607171
                  }
                }
              }
            }
          }
        }
      }
    }
  }
  JOINT rButtock
  {
    OFFSET -8.77824 4.35084 1.2192
    CHANNELS 3 Zrotation Xrotation Yrotation
    JOINT rThigh
    {
      OFFSET 0.0 -1.70687 -2.19456
      CHANNELS 3 Zrotation Xrotation Yrotation
      JOINT rShin
      {
        OFFSET 0.0 -36.8199 0.73152
        CHANNELS 3 Zrotation Xrotation Yrotation
        JOINT rFoot
        {
          OFFSET 0.73152 -45.1104 -5.12064
          CHANNELS 3 Zrotation Xrotation Yrotation
          End Site
          {
            OFFSET -1.1221 -3.69964 12.103
          }
        }
      }
    }
  }
  JOINT lButtock
  {
    OFFSET 8.77824 4.35084 1.2192
    CHANNELS 3 Zrotation Xrotation Yrotation
    JOINT lThigh
    {
      OFFSET 0.0 -1.70687 -2.19456
      CHANNELS 3 Zrotation Xrotation Yrotation
      JOINT lShin
      {
        OFFSET 0.0 -36.8199 0.73152
        CHANNELS 3 Zrotation Xrotation Yrotation
        JOINT lFoot
        {
          OFFSET -0.73152 -45.1104 -5.12064
          CHANNELS 3 Zrotation Xrotation Yrotation
          End Site
          {
            OFFSET 1.1221 -3.69964 12.103
          }
        }
      }
    }
  }
}
MOTION
Frames: 4
Frame Time: 0.00833333
0.0 84.5301 0.0 1.1124 7.5679 5.0957 -0.505846 11.286 -3.63677 2.30806 -2.11799 -0.947049 3.46518 -3.68112 1.18014 -6.86161 15.1379 2.10104 -0.0 0.0 0.0 -0.0 0.0 0.0 0.0 0.0 0.0 0.0 0.0 0.0 0.0 0.0 0.0 -0.0117646 -3.09525 -0.435437 -1.16695e-10 -1.26443e-09 -6.71358e-10 -1.97961e-10 -2.19031e-09 -1.164e-09 -1.16695e-10 -1.26443e-09 -6.71374e-10 7.73091 5.47488 0.417314 -1.16695e-10 -1.26443e-09 -6.71361e-10 2.90554 0.965183 0.102902 -1.16688e-10 -1.26443e-09 -6.71359e-10 10.2786 0.731801 0.0259123 -1.16697e-10 -1.26442e-09 -6.71351e-10 2.22167 -0.733487 -0.20892 0.0 0.0 0.0 0.0 0.0 0.0 0.0 0.0 0.0 0.0058516 2.18363 -0.307039 -1.84992e-09 -1.33577e-09 -1.6054e-09 -3.20276e-09 -2.31136e-09 -2.76837e-09 -1.84993e-09 -1.33577e-09 -1.60539e-09 -7.73091 5.47488 -0.417314 -1.84992e-09 -1.33577e-09 -1.60539e-09 -2.90554 0.965183 -0.102902 -1.84994e-09 -1.33577e-09 -1.60539e-09 -10.2786 0.731801 -0.0259123 -1.84992e-09 -1.33577e-09 -1.6054e-09 -2.22167 -0.733487 0.20892 -2.03217e-16 0.0 -3.88251e-19 -1.03676 -22.9403 -4.59202 -0.17869 30.3995 0.393977 -3.45557 -5.04877 -17.3027 2.03217e-16 0.0 3.88251e-19 8.34622 -7.28901 -2.15527 0.400395 42.8057 -0.747231 0.291917 7.76589 1.35872
-0.012029999999999763 84.5307 0.3620999999999981 1.0696 7.6329 5.0054 -0.0790819 11.288 -3.58289 2.3472 -2.09305 -0.916489 3.382 -3.67156 1.12609 -7.03194 15.1722 2.04892 -0.0 0.0 0.0 -0.0 0.0 0.0 0.0 0.0 0.0 0.0 0.0 0.0 0.0 0.0 0.0 -0.0110816 -3.0079 -0.423124 4.4789e-10 -1.12738e-09 9.58157e-11 7.7639e-10 -1.95139e-09 1.63811e-10 4.4789e-10 -1.12738e-09 9.57974e-11 7.73091 5.47488 0.417314 4.47889e-10 -1.12738e-09 9.58126e-11 2.90554 0.965183 0.102902 4.47897e-10 -1.12739e-09 9.58136e-11 10.2786 0.731801 0.0259123 4.47887e-10 -1.12738e-09 9.58211e-11 2.22167 -0.733487 -0.20892 0.0 0.0 0.0 0.0 0.0 0.0 0.0 0.0 0.0 0.00557915 2.13059 -0.299575 -1.37105e-09 -1.33594e-09 -6.1329e-10 -2.37282e-09 -2.31222e-09 -1.05373e-09 -1.37106e-09 -1.33594e-09 -6.13281e-10 -7.73091 5.47488 -0.417314 -1.37105e-09 -1.33594e-09 -6.13284e-10 -2.90554 0.965183 -0.102902 -1.37106e-09 -1.33594e-09 -6.13287e-10 -10.2786 0.731801 -0.0259123 -1.37104e-09 -1.33594e-09 -6.13291e-10 -2.22167 -0.733487 0.20892 -2.03217e-16 0.0 -3.88251e-19 -0.936373 -22.4877 -4.61355 -0.175436 30.2385 0.387499 -3.51514 -5.28311 -17.3302 2.03217e-16 0.0 3.88251e-19 8.42724 -7.99408 -1.90864 0.426703 43.8838 -0.776616 0.30792 7.17186 1.33921
-0.020489999999999675 84.5313 0.7302999999999997 1.0448 7.691 4.91 0.330436 11.2943 -3.52249 2.39184 -2.06648 -0.884712 3.28694 -3.64393 1.06447 -7.18426 15.183 1.98323 -0.0 0.0 0.0 -0.0 0.0 0.0 0.0 0.0 0.0 0.0 0.0 0.0 0.0 0.0 0.0 -0.0102327 -2.89275 -0.406897 1.34573e-09 -8.87289e-10 1.26762e-09 2.32582e-09 -1.53332e-09 2.19197e-09 1.34573e-09 -8.87286e-10 1.2676e-09 7.73091 5.47488 0.417314 1.34573e-09 -8.87287e-10 1.26762e-09 2.90554 0.965183 0.102902 1.34574e-09 -8.8729e-10 1.26762e-09 10.2786 0.731801 0.0259123 1.34573e-09 -8.87284e-10 1.26763e-09 2.22167 -0.733487 -0.20892 0.0 0.0 0.0 0.0 0.0 0.0 0.0 0.0 0.0 0.00536987 2.09045 -0.293926 -4.62717e-10 -1.2779e-09 9.65922e-10 -7.99097e-10 -2.21269e-09 1.67483e-09 -4.62722e-10 -1.2779e-09 9.65928e-10 -7.73091 5.47488 -0.417314 -4.62715e-10 -1.2779e-09 9.65924e-10 -2.90554 0.965183 -0.102902 -4.62724e-10 -1.2779e-09 9.65923e-10 -10.2786 0.731801 -0.0259123 -4.62709e-10 -1.2779e-09 9.65917e-10 -2.22167 -0.733487 0.20892 -2.03217e-16 0.0 -3.88251e-19 -0.848189 -22.0194 -4.64773 -0.171939 30.0699 0.381592 -3.57437 -5.52453 -17.3445 2.03217e-16 0.0 3.88251e-19 8.49994 -8.69565 -1.64924 0.45307 44.9124 -0.806594 0.325328 6.50297 1.32392
-0.030370000000000008 84.5317 1.1021999999999963 1.0138 7.7436 4.8069 0.721283 11.3017 -3.45678 2.4408 -2.04452 -0.852061 3.19296 -3.61855 1.00192 -7.3316 15.195 1.91496 -0.0 0.0 0.0 -0.0 0.0 0.0 0.0 0.0 0.0 0.0 0.0 0.0 0.0 0.0 0.0 -0.00943807 -2.77669 -0.390546 2.16707e-09 -6.10014e-10 2.36146e-09 3.74305e-09 -1.05107e-09 4.08527e-09 2.16708e-09 -6.10012e-10 2.36144e-09 7.73091 5.47488 0.417314 2.16707e-09 -6.10013e-10 2.36146e-09 2.90554 0.965183 0.102902 2.16708e-09 -6.10014e-10 2.36146e-09 10.2786 0.731801 0.0259123 2.16707e-09 -6.10009e-10 2.36147e-09 2.22167 -0.733487 -0.20892 0.0 0.0 0.0 0.0 0.0 0.0 0.0 0.0 0.0 0.00522498 2.06306 -0.290071 4.75871e-10 -1.15756e-09 2.4688e-09 8.2685e-10 -2.00526e-09 4.27111e-09 4.75866e-10 -1.15756e-09 2.46881e-09 -7.73091 5.47488 -0.417314 4.75872e-10 -1.15756e-09 2.4688e-09 -2.90554 0.965183 -0.102902 4.75867e-10 -1.15756e-09 2.4688e-09 -10.2786 0.731801 -0.0259123 4.75878e-10 -1.15756e-09 2.46879e-09 -2.22167 -0.733487 0.20892 -2.03217e-16 0.0 -3.88251e-19 -0.761811 -21.548 -4.67742 -0.168336 29.9011 0.376574 -3.63389 -5.76411 -17.3614 2.03217e-16 0.0 3.88251e-19 8.56836 -9.40197 -1.37625 0.47919 45.8813 -0.836403 0.34254 5.83207 1.30014
